<svg width="78" height="75" fill="none" xmlns="http://www.w3.org/2000/svg"><path d="M64.32 22.593L45.237 37.615l-15.63 5.019-20.014-18.57 54.725-1.47z" fill="#73E6D3"/><path d="M24.295 43.699l1.734 3.004-12.117 6.996-1.735-3.004 12.118-6.996zm-3.469-6.009l1.734 3.004-9.013 5.204-1.735-3.005 9.014-5.203z" fill="#F3F5F9"/><path d="M27.764 49.708l1.734 3.004-9.013 5.204-1.735-3.005 9.014-5.203z" fill="#E1E6F0"/><path d="M64.32 22.594l-34.712 20.04 6.074 26.618L64.32 22.594z" fill="#51CCCC"/><path d="M25.162 45.2l.867 1.502-12.117 6.996-.868-1.502L25.162 45.2z" fill="#E1E6F0"/></svg>