<svg viewBox="0 0 44 46" xmlns="http://www.w3.org/2000/svg" xmlns:xlink="http://www.w3.org/1999/xlink"><style>:root&gt;svg{display:none}:root&gt;svg:target{display:block}</style><svg viewBox="0 0 24 20" id="dog-up-l" xmlns="http://www.w3.org/2000/svg"><path d="M5.217 9.565c1.276.116 2.32.609 3.13 1.479.812.869 1.218 1.97 1.218 3.304 0 1.45-.435 2.637-1.304 3.565-.87.87-1.971 1.304-3.304 1.304-1.508 0-2.725-.55-3.653-1.652C.434 16.464 0 14.754 0 12.435 0 7.97 1.478 4.115 4.435.87c.58-.58 1.246-.87 2-.87.637 0 1.188.232 1.652.696.464.405.696.898.696 1.478 0 .638-.232 1.188-.696 1.652-1.507 1.565-2.464 3.478-2.87 5.74zm14.435 0c1.275.116 2.319.609 3.13 1.479.812.869 1.218 1.97 1.218 3.304 0 1.45-.435 2.637-1.304 3.565-.87.87-1.971 1.304-3.305 1.304-1.507 0-2.724-.55-3.652-1.652-.87-1.101-1.304-2.811-1.304-5.13 0-4.464 1.478-8.32 4.435-11.565.58-.58 1.246-.87 2-.87.637 0 1.188.232 1.652.696.463.405.695.898.695 1.478 0 .638-.232 1.188-.695 1.652-1.507 1.565-2.464 3.478-2.87 5.74z"/></svg><svg viewBox="0 0 24 20" id="dog-up-r" xmlns="http://www.w3.org/2000/svg"><path d="M18.783 9.565c-1.276.116-2.32.609-3.13 1.479-.812.869-1.218 1.97-1.218 3.304 0 1.45.435 2.637 1.304 3.565.87.87 1.971 1.304 3.305 1.304 1.507 0 2.724-.55 3.652-1.652.87-1.101 1.304-2.811 1.304-5.13C24 7.97 22.522 4.115 19.565.87c-.58-.58-1.246-.87-2-.87-.638 0-1.188.232-1.652.696-.464.405-.696.898-.696 1.478 0 .638.232 1.188.696 1.652 1.507 1.565 2.464 3.478 2.87 5.74zm-14.435 0c-1.276.116-2.319.609-3.13 1.479C.405 11.912 0 13.014 0 14.348c0 1.45.435 2.637 1.304 3.565.87.87 1.971 1.304 3.305 1.304 1.507 0 2.724-.55 3.652-1.652.87-1.101 1.304-2.811 1.304-5.13C9.565 7.97 8.087 4.115 5.13.87 4.55.29 3.884 0 3.13 0c-.637 0-1.188.232-1.652.696-.464.405-.695.898-.695 1.478 0 .638.231 1.188.695 1.652 1.508 1.565 2.464 3.478 2.87 5.74z"/></svg><svg viewBox="0 0 44 44" id="facebook" xmlns="http://www.w3.org/2000/svg"><path d="M38.844 0H5.156A5.162 5.162 0 000 5.156v33.688A5.162 5.162 0 005.156 44h33.688A5.162 5.162 0 0044 38.844V5.156A5.162 5.162 0 0038.844 0zm1.718 38.844a1.72 1.72 0 01-1.718 1.718h-9.797V26.556h5.31l.877-5.328h-6.187V17.53c0-1.458 1.12-2.578 2.578-2.578h3.523V9.625h-3.523c-4.376 0-7.904 3.545-7.904 7.921v3.68h-5.159v5.329h5.159v14.008H5.156a1.72 1.72 0 01-1.718-1.72V5.157a1.72 1.72 0 011.718-1.718h33.688a1.72 1.72 0 011.718 1.718v33.688z"/></svg><svg viewBox="0 0 44 44" id="instagram" xmlns="http://www.w3.org/2000/svg"><path d="M31.219 0H12.78C5.734 0 0 5.734 0 12.781V31.22C0 38.266 5.734 44 12.781 44H31.22C38.266 44 44 38.266 44 31.219V12.78C44 5.734 38.266 0 31.219 0zm9.343 31.219c0 5.152-4.191 9.343-9.343 9.343H12.78c-5.152 0-9.344-4.191-9.344-9.343V12.78c0-5.152 4.192-9.344 9.344-9.344h18.44c5.152 0 9.343 4.192 9.343 9.344v18.44z"/><path d="M22 10.14c-6.54 0-11.86 5.32-11.86 11.86 0 6.54 5.32 11.86 11.86 11.86 6.54 0 11.86-5.32 11.86-11.86 0-6.54-5.32-11.86-11.86-11.86zm0 20.282c-4.644 0-8.422-3.778-8.422-8.422s3.778-8.422 8.422-8.422 8.422 3.778 8.422 8.422-3.778 8.422-8.422 8.422zm12.031-18.734a1.719 1.719 0 100-3.438 1.719 1.719 0 000 3.438z"/></svg><svg viewBox="0 0 24 24" id="next-arrow" xmlns="http://www.w3.org/2000/svg"><path d="M12 4l-1.41 1.41L16.17 11H4v2h12.17l-5.58 5.59L12 20l8-8-8-8z"/></svg><svg viewBox="0 0 24 24" id="prev-arrow" xmlns="http://www.w3.org/2000/svg"><path d="M20 11H7.83l5.59-5.59L12 4l-8 8 8 8 1.41-1.41L7.83 13H20v-2z"/></svg><svg viewBox="0 0 44 46" id="telegram" xmlns="http://www.w3.org/2000/svg"><g clip-path="url(#gclip0_20948:41)"><path d="M43.32 4.492c-.537-.675-1.342-1.047-2.266-1.047-.503 0-1.035.109-1.583.323L2.227 18.381C.25 19.156-.016 20.32.001 20.944c.017.625.347 1.77 2.363 2.43l.036.011 7.726 2.272 4.178 12.28c.57 1.674 1.848 2.714 3.337 2.714.94 0 1.863-.405 2.671-1.17l4.779-4.522 6.93 5.736.003.002.066.055.018.014c.77.615 1.612.939 2.433.94 1.606 0 2.883-1.222 3.256-3.111l6.102-30.97c.245-1.243.04-2.356-.578-3.133zM12.71 25.226L27.615 17.4l-9.28 10.135a1.34 1.34 0 00-.313.59l-1.79 7.451-3.522-10.35zm5.855 12.306a2.43 2.43 0 01-.185.159l1.66-6.912 3.02 2.5-4.494 4.253zM41.373 7.1L35.27 38.07c-.059.296-.246.986-.729.986-.238 0-.538-.133-.844-.376l-7.854-6.5a.013.013 0 00-.004-.002l-4.673-3.868 13.421-14.657c.43-.47.47-1.188.093-1.704a1.267 1.267 0 00-1.618-.384l-22.074 11.59-7.83-2.302L40.39 6.244c.315-.124.534-.15.663-.15.078 0 .219.01.27.076.07.086.157.379.049.929z"/></g><defs><clipPath id="gclip0_20948:41"><path d="M0 0h44v45.222H0z"/></clipPath></defs></svg></svg>